<?xml version="1.0" standalone="no"?>
<!DOCTYPE svg PUBLIC "-//W3C//DTD SVG 20010904//EN"
 "http://www.w3.org/TR/2001/REC-SVG-20010904/DTD/svg10.dtd">
<svg version="1.0" xmlns="http://www.w3.org/2000/svg"
 width="700.000000pt" height="700.000000pt" viewBox="0 0 700.000000 700.000000"
 preserveAspectRatio="xMidYMid meet">
<metadata>
Created by potrace 1.11, written by Peter Selinger 2001-2013
</metadata>
<g transform="translate(0.000000,700.000000) scale(0.100000,-0.100000)"
fill="#000000" stroke="none">
<path d="M3395 6833 c-55 -91 -112 -184 -126 -207 -15 -23 -106 -171 -204
-331 -98 -159 -212 -346 -255 -415 -42 -69 -269 -440 -505 -825 -235 -385
-445 -727 -465 -760 -126 -202 -393 -640 -424 -695 -86 -152 -168 -341 -214
-495 -42 -143 -61 -229 -87 -405 -16 -102 -22 -395 -10 -495 3 -27 8 -70 10
-95 50 -445 263 -927 560 -1269 310 -358 697 -609 1140 -740 119 -36 327 -77
445 -90 148 -15 459 -6 609 18 74 12 137 24 141 26 4 2 22 7 41 10 36 6 142
36 219 62 241 79 522 234 735 403 77 61 268 246 331 320 114 135 222 298 312
475 117 228 213 542 237 775 3 30 8 73 11 95 8 53 7 342 0 425 -11 110 -45
297 -77 414 -43 161 -94 292 -175 451 -55 110 -449 761 -998 1650 -17 28 -36
60 -43 71 -6 10 -60 98 -119 194 -162 264 -511 833 -751 1225 -118 193 -220
355 -226 362 -9 8 -36 -29 -112 -154z"/>
</g>
</svg>
